<svg xmlns="http://www.w3.org/2000/svg" xmlns:xlink="http://www.w3.org/1999/xlink" width="500" zoomAndPan="magnify" viewBox="0 0 375 374.999991" height="500" preserveAspectRatio="xMidYMid meet" version="1.0"><defs><filter x="0%" y="0%" width="100%" height="100%" id="dd5962b3a8"><feColorMatrix values="0 0 0 0 1 0 0 0 0 1 0 0 0 0 1 0 0 0 1 0" color-interpolation-filters="sRGB"/></filter><g/><mask id="77c6707327"><g filter="url(#dd5962b3a8)"><rect x="-37.5" width="450" fill="#000000" y="-37.499999" height="449.999989" fill-opacity="0.12"/></g></mask><clipPath id="ec5f237abf"><path d="M 0 58 L 4.917969 58 L 4.917969 61 L 0 61 Z M 0 58 " clip-rule="nonzero"/></clipPath><clipPath id="07bc1cd87a"><rect x="0" width="6" y="0" height="65"/></clipPath><clipPath id="1164e5d075"><path d="M 30 93 L 59 93 L 59 115 L 30 115 Z M 30 93 " clip-rule="nonzero"/></clipPath><clipPath id="194a836eac"><path d="M 15.335938 118.019531 L 33.84375 88.769531 L 63.09375 107.28125 L 44.582031 136.527344 Z M 15.335938 118.019531 " clip-rule="nonzero"/></clipPath><clipPath id="765a6fc8c2"><path d="M -67.171875 248.394531 L 127.792969 -59.6875 L 435.875 135.28125 L 240.910156 443.363281 Z M -67.171875 248.394531 " clip-rule="nonzero"/></clipPath><clipPath id="740fc71445"><path d="M 93 28 L 114 28 L 114 58 L 93 58 Z M 93 28 " clip-rule="nonzero"/></clipPath><clipPath id="4844313faa"><path d="M 71.308594 41.9375 L 101.445312 24.910156 L 118.472656 55.042969 L 88.339844 72.074219 Z M 71.308594 41.9375 " clip-rule="nonzero"/></clipPath><clipPath id="856161ac8f"><path d="M -63.015625 117.847656 L 254.398438 -61.527344 L 433.773438 255.890625 L 116.355469 435.261719 Z M -63.015625 117.847656 " clip-rule="nonzero"/></clipPath><clipPath id="4360a3dc05"><path d="M 260 29 L 281 29 L 281 58 L 260 58 Z M 260 29 " clip-rule="nonzero"/></clipPath><clipPath id="0b89c1e64f"><path d="M 285.847656 72.042969 L 255.679688 55.074219 L 272.648438 24.90625 L 302.816406 41.871094 Z M 285.847656 72.042969 " clip-rule="nonzero"/></clipPath><clipPath id="4766781029"><path d="M 420.332031 147.675781 L 102.546875 -31.046875 L 281.269531 -348.828125 L 599.050781 -170.109375 Z M 420.332031 147.675781 " clip-rule="nonzero"/></clipPath><clipPath id="1d8c1558c8"><path d="M 315 93 L 344 93 L 344 116 L 315 116 Z M 315 93 " clip-rule="nonzero"/></clipPath><clipPath id="885580271e"><path d="M 331.398438 137.035156 L 311.28125 108.867188 L 339.445312 88.75 L 359.5625 116.917969 Z M 331.398438 137.035156 " clip-rule="nonzero"/></clipPath><clipPath id="9db3f11e5b"><path d="M 449.210938 242.496094 L 237.308594 -54.195312 L -59.382812 157.707031 L 152.519531 454.394531 Z M 449.210938 242.496094 " clip-rule="nonzero"/></clipPath><clipPath id="f41c89bbbb"><path d="M 316 260 L 345 260 L 345 282 L 316 282 Z M 316 260 " clip-rule="nonzero"/></clipPath><clipPath id="4b843769d6"><path d="M 359.652344 256.96875 L 341.144531 286.214844 L 311.894531 267.707031 L 330.402344 238.457031 Z M 359.652344 256.96875 " clip-rule="nonzero"/></clipPath><clipPath id="673022e2e7"><path d="M 442.160156 126.589844 L 247.191406 434.671875 L -60.890625 239.707031 L 134.078125 -68.375 Z M 442.160156 126.589844 " clip-rule="nonzero"/></clipPath><clipPath id="c257dd2355"><path d="M 261 317 L 282 317 L 282 347 L 261 347 Z M 261 317 " clip-rule="nonzero"/></clipPath><clipPath id="0e94139f86"><path d="M 303.675781 333.046875 L 273.542969 350.078125 L 256.515625 319.945312 L 286.648438 302.914062 Z M 303.675781 333.046875 " clip-rule="nonzero"/></clipPath><clipPath id="1fa893fd84"><path d="M 438.003906 257.140625 L 120.589844 436.511719 L -58.785156 119.097656 L 258.628906 -60.277344 Z M 438.003906 257.140625 " clip-rule="nonzero"/></clipPath><clipPath id="c43a043a2b"><path d="M 94 317 L 115 317 L 115 346 L 94 346 Z M 94 317 " clip-rule="nonzero"/></clipPath><clipPath id="6ecda5fe79"><path d="M 89.136719 302.945312 L 119.308594 319.914062 L 102.339844 350.082031 L 72.171875 333.113281 Z M 89.136719 302.945312 " clip-rule="nonzero"/></clipPath><clipPath id="3cc1361718"><path d="M -45.34375 227.3125 L 272.4375 406.035156 L 93.71875 723.816406 L -224.066406 545.097656 Z M -45.34375 227.3125 " clip-rule="nonzero"/></clipPath><clipPath id="8061df0338"><path d="M 31 259 L 60 259 L 60 282 L 31 282 Z M 31 259 " clip-rule="nonzero"/></clipPath><clipPath id="bc90134120"><path d="M 43.589844 237.953125 L 63.707031 266.117188 L 35.539062 286.238281 L 15.421875 258.070312 Z M 43.589844 237.953125 " clip-rule="nonzero"/></clipPath><clipPath id="66b53c176a"><path d="M -74.222656 132.492188 L 137.679688 429.183594 L 434.371094 217.28125 L 222.46875 -79.410156 Z M -74.222656 132.492188 " clip-rule="nonzero"/></clipPath><clipPath id="e62555b2ff"><path d="M 153 94 L 247.835938 94 L 247.835938 165 L 153 165 Z M 153 94 " clip-rule="nonzero"/></clipPath><clipPath id="1b19858d5b"><path d="M 174 62.46875 L 190 62.46875 L 190 174 L 174 174 Z M 174 62.46875 " clip-rule="nonzero"/></clipPath><clipPath id="c20a7b5067"><path d="M 175 200 L 188 200 L 188 214.765625 L 175 214.765625 Z M 175 200 " clip-rule="nonzero"/></clipPath></defs><g mask="url(#77c6707327)"><g transform="matrix(1, 0, 0, 1, 0, 26)"><g clip-path="url(#07bc1cd87a)"><g clip-path="url(#ec5f237abf)"><path fill="#000000" d="M -4.363281 60.855469 L 3.371094 60.855469 C 5.117188 60.855469 5.117188 58.152344 3.371094 58.152344 L -4.363281 58.152344 C -6.109375 58.152344 -6.109375 60.855469 -4.363281 60.855469 Z M -4.363281 60.855469 " fill-opacity="1" fill-rule="nonzero"/></g></g></g></g><path fill="#fb9400" d="M 34.082031 183.835938 L 10.683594 183.835938 C 5.328125 183.835938 5.328125 192.144531 10.683594 192.144531 L 34.082031 192.144531 C 39.4375 192.144531 39.4375 183.835938 34.082031 183.835938 Z M 34.082031 183.835938 " fill-opacity="1" fill-rule="nonzero"/><path fill="#fb9400" d="M 364.167969 183.835938 L 340.773438 183.835938 C 335.414062 183.835938 335.414062 192.144531 340.773438 192.144531 L 364.167969 192.144531 C 369.523438 192.144531 369.523438 183.835938 364.167969 183.835938 Z M 364.167969 183.835938 " fill-opacity="1" fill-rule="nonzero"/><g clip-path="url(#1164e5d075)"><g clip-path="url(#194a836eac)"><g clip-path="url(#765a6fc8c2)"><path fill="#fb9400" d="M 56.640625 106.496094 L 36.871094 93.984375 C 32.34375 91.121094 27.902344 98.140625 32.429688 101.003906 L 52.199219 113.515625 C 56.726562 116.382812 61.167969 109.363281 56.640625 106.496094 Z M 56.640625 106.496094 " fill-opacity="1" fill-rule="nonzero"/></g></g></g><path fill="#ffffff" d="M 182.390625 11.183594 L 182.390625 34.578125 C 182.390625 39.9375 190.699219 39.9375 190.699219 34.578125 L 190.699219 11.183594 C 190.699219 5.824219 182.390625 5.824219 182.390625 11.183594 Z M 182.390625 11.183594 " fill-opacity="1" fill-rule="nonzero"/><g clip-path="url(#740fc71445)"><g clip-path="url(#4844313faa)"><g clip-path="url(#856161ac8f)"><path fill="#fb9400" d="M 113.15625 51.304688 L 101.648438 30.9375 C 99.011719 26.273438 91.78125 30.359375 94.414062 35.023438 L 105.925781 55.390625 C 108.5625 60.054688 115.792969 55.96875 113.15625 51.304688 Z M 113.15625 51.304688 " fill-opacity="1" fill-rule="nonzero"/></g></g></g><g clip-path="url(#4360a3dc05)"><g clip-path="url(#0b89c1e64f)"><g clip-path="url(#4766781029)"><path fill="#ffffff" d="M 272.199219 31.386719 L 260.730469 51.78125 C 258.105469 56.449219 265.34375 60.523438 267.972656 55.851562 L 279.441406 35.460938 C 282.066406 30.789062 274.824219 26.71875 272.199219 31.386719 Z M 272.199219 31.386719 " fill-opacity="1" fill-rule="nonzero"/></g></g></g><g clip-path="url(#1d8c1558c8)"><g clip-path="url(#885580271e)"><g clip-path="url(#9db3f11e5b)"><path fill="#fb9400" d="M 317.648438 107.746094 L 336.6875 94.148438 C 341.046875 91.035156 345.875 97.792969 341.515625 100.910156 L 322.476562 114.507812 C 318.117188 117.621094 313.289062 110.859375 317.648438 107.746094 Z M 317.648438 107.746094 " fill-opacity="1" fill-rule="nonzero"/></g></g></g><path fill="#fb9400" d="M 340.90625 191.148438 L 364.300781 191.148438 C 369.660156 191.148438 369.660156 182.84375 364.300781 182.84375 L 340.90625 182.84375 C 335.550781 182.84375 335.550781 191.148438 340.90625 191.148438 Z M 340.90625 191.148438 " fill-opacity="1" fill-rule="nonzero"/><path fill="#fb9400" d="M 10.820312 191.148438 L 34.214844 191.148438 C 39.574219 191.148438 39.574219 182.84375 34.214844 182.84375 L 10.820312 182.84375 C 5.460938 182.84375 5.460938 191.148438 10.820312 191.148438 Z M 10.820312 191.148438 " fill-opacity="1" fill-rule="nonzero"/><g clip-path="url(#f41c89bbbb)"><g clip-path="url(#4b843769d6)"><g clip-path="url(#673022e2e7)"><path fill="#fb9400" d="M 318.34375 268.488281 L 338.113281 281 C 342.640625 283.867188 347.085938 276.847656 342.558594 273.980469 L 322.789062 261.46875 C 318.261719 258.605469 313.820312 265.625 318.34375 268.488281 Z M 318.34375 268.488281 " fill-opacity="1" fill-rule="nonzero"/></g></g></g><path fill="#fb9400" d="M 192.59375 363.804688 L 192.59375 340.410156 C 192.59375 335.050781 184.289062 335.050781 184.289062 340.410156 L 184.289062 363.804688 C 184.289062 369.160156 192.59375 369.160156 192.59375 363.804688 Z M 192.59375 363.804688 " fill-opacity="1" fill-rule="nonzero"/><g clip-path="url(#c257dd2355)"><g clip-path="url(#0e94139f86)"><g clip-path="url(#1fa893fd84)"><path fill="#fb9400" d="M 261.828125 323.683594 L 273.339844 344.050781 C 275.976562 348.714844 283.207031 344.628906 280.570312 339.964844 L 269.0625 319.59375 C 266.425781 314.929688 259.191406 319.019531 261.828125 323.683594 Z M 261.828125 323.683594 " fill-opacity="1" fill-rule="nonzero"/></g></g></g><g clip-path="url(#c43a043a2b)"><g clip-path="url(#6ecda5fe79)"><g clip-path="url(#3cc1361718)"><path fill="#fb9400" d="M 102.789062 343.597656 L 114.257812 323.207031 C 116.882812 318.539062 109.640625 314.464844 107.015625 319.136719 L 95.546875 339.527344 C 92.921875 344.195312 100.160156 348.269531 102.789062 343.597656 Z M 102.789062 343.597656 " fill-opacity="1" fill-rule="nonzero"/></g></g></g><g clip-path="url(#8061df0338)"><g clip-path="url(#bc90134120)"><g clip-path="url(#66b53c176a)"><path fill="#fb9400" d="M 57.339844 267.242188 L 38.300781 280.839844 C 33.941406 283.953125 29.113281 277.191406 33.472656 274.078125 L 52.511719 260.480469 C 56.871094 257.367188 61.699219 264.128906 57.339844 267.242188 Z M 57.339844 267.242188 " fill-opacity="1" fill-rule="nonzero"/></g></g></g><path fill="#fb9400" d="M 178.109375 147.039062 C 177.941406 145.765625 178.839844 144.601562 180.113281 144.4375 C 181.382812 144.273438 182.546875 145.171875 182.714844 146.445312 C 182.878906 147.714844 181.976562 148.882812 180.703125 149.042969 C 179.429688 149.207031 178.265625 148.308594 178.109375 147.039062 " fill-opacity="1" fill-rule="nonzero"/><g clip-path="url(#e62555b2ff)"><path fill="#fb9400" d="M 173.210938 145.105469 C 170.519531 146.984375 167.894531 148.601562 166.503906 149.433594 C 166.503906 149.433594 162.371094 153.121094 153.484375 152.757812 L 157.871094 158.902344 C 157.878906 159.199219 159.898438 163.304688 159.871094 163.605469 L 160.8125 164.53125 C 162.585938 156.984375 168.464844 154.683594 168.464844 154.683594 C 171.25 152.652344 174.515625 152.457031 174.515625 152.457031 C 174.515625 152.457031 179.214844 154.808594 183.640625 151.574219 C 187.234375 148.949219 187.78125 144.925781 190.1875 143.15625 C 197.421875 137.851562 247.15625 94.886719 247.15625 94.886719 C 247.15625 94.886719 186.597656 136.765625 173.210938 145.105469 " fill-opacity="1" fill-rule="nonzero"/></g><path fill="#fb9400" d="M 151.617188 174.441406 C 145.683594 179.207031 138.15625 179.6875 134.800781 175.507812 C 131.445312 171.328125 133.535156 164.078125 139.46875 159.3125 C 145.402344 154.546875 152.933594 154.070312 156.289062 158.25 C 159.640625 162.425781 157.554688 169.675781 151.617188 174.441406 Z M 159.035156 156.042969 C 154.820312 150.796875 145.367188 151.394531 137.914062 157.378906 C 130.460938 163.363281 127.835938 172.46875 132.050781 177.714844 C 136.265625 182.960938 145.722656 182.363281 153.171875 176.378906 C 160.625 170.390625 163.25 161.289062 159.035156 156.042969 " fill-opacity="1" fill-rule="nonzero"/><g clip-path="url(#1b19858d5b)"><path fill="#fb9400" d="M 185.542969 151.84375 C 185.410156 155.121094 185.46875 158.207031 185.515625 159.824219 C 185.515625 159.824219 184.648438 165.296875 189.753906 172.582031 L 182.210938 172.207031 C 181.953125 172.359375 177.414062 172.875 177.167969 173.058594 L 175.886719 172.769531 C 181.277344 167.203125 180.042969 161.007812 180.042969 161.007812 C 180.242188 157.570312 178.648438 154.71875 178.648438 154.71875 C 178.648438 154.71875 174.128906 152.03125 174.460938 146.554688 C 174.730469 142.117188 177.820312 139.484375 178.011719 136.503906 C 178.570312 127.550781 187.882812 62.488281 187.882812 62.488281 C 187.882812 62.488281 185.328125 136.070312 185.542969 151.84375 " fill-opacity="1" fill-rule="nonzero"/></g><path fill="#fb9400" d="M 183.613281 173.1875 C 188.941406 173.753906 192.605469 180.347656 191.800781 187.914062 C 190.992188 195.484375 186.019531 201.160156 180.691406 200.589844 C 175.363281 200.019531 171.699219 193.425781 172.507812 185.859375 C 173.3125 178.289062 178.285156 172.617188 183.613281 173.1875 Z M 170.039062 185.59375 C 169.023438 195.097656 173.625 203.378906 180.320312 204.097656 C 187.007812 204.808594 193.253906 197.683594 194.265625 188.179688 C 195.28125 178.675781 190.679688 170.394531 183.988281 169.679688 C 177.300781 168.96875 171.054688 176.089844 170.039062 185.59375 " fill-opacity="1" fill-rule="nonzero"/><path fill="#181a20" d="M 181.269531 148.765625 C 182.429688 148.21875 182.925781 146.835938 182.375 145.675781 C 181.828125 144.515625 180.441406 144.019531 179.28125 144.570312 C 178.121094 145.117188 177.628906 146.503906 178.179688 147.664062 C 178.730469 148.824219 180.113281 149.316406 181.269531 148.765625 " fill-opacity="1" fill-rule="nonzero"/><g clip-path="url(#c20a7b5067)"><path fill="#fb9400" d="M 182.5 214.152344 C 183.308594 214.589844 184.199219 214.976562 185.191406 215.289062 C 186.136719 215.589844 187.152344 215.070312 187.453125 214.121094 C 187.753906 213.171875 187.230469 212.160156 186.28125 211.859375 C 178.808594 209.484375 179.402344 202.472656 179.4375 202.171875 C 179.53125 201.1875 178.808594 200.304688 177.816406 200.207031 C 176.828125 200.109375 175.945312 200.835938 175.847656 201.824219 C 175.546875 204.917969 176.675781 210.964844 182.5 214.152344 " fill-opacity="1" fill-rule="nonzero"/></g><path fill="#fb9400" d="M 182.125 204.097656 C 182.125 204.097656 179.320312 204.527344 179.945312 205.960938 C 180.574219 207.394531 177.113281 206.402344 177.113281 206.402344 L 175.910156 204.375 C 175.910156 204.375 175.890625 202.902344 174.414062 201.050781 C 172.933594 199.199219 174.730469 199.65625 175.070312 199.84375 C 175.410156 200.03125 182.734375 203.46875 182.125 204.097656 " fill-opacity="1" fill-rule="nonzero"/><g fill="#fb9400" fill-opacity="1"><g transform="translate(127.559828, 266.041298)"><g><path d="M 14.265625 -17.71875 L 0.4375 -17.71875 L 1.421875 -16.46875 C 3.328125 -17.21875 5.03125 -17.359375 6 -17.359375 L 6.265625 -17.359375 L 6.265625 -4.359375 C 6.265625 -2.75 6.21875 -1.859375 6.09375 0 L 8.609375 0 C 8.484375 -1.859375 8.4375 -2.75 8.4375 -4.359375 L 8.4375 -17.359375 L 8.703125 -17.359375 C 9.671875 -17.359375 11.375 -17.21875 13.28125 -16.46875 Z M 14.265625 -17.71875 "/></g></g></g><g fill="#ffffff" fill-opacity="1"><g transform="translate(142.264502, 266.041298)"><g><path d="M 11.796875 -4.203125 C 10.734375 -6.859375 9.125 -7.875 7.203125 -8.234375 C 10.453125 -8.484375 13.015625 -9.609375 13.015625 -12.953125 C 13.015625 -16.8125 9.59375 -17.71875 5.640625 -17.71875 L 1.546875 -17.71875 C 1.6875 -15.859375 1.734375 -14.96875 1.734375 -13.34375 L 1.734375 -4.359375 C 1.734375 -2.75 1.6875 -1.859375 1.546875 0 L 4.078125 0 C 3.9375 -1.859375 3.890625 -2.75 3.890625 -4.359375 L 3.890625 -8.1875 L 4.6875 -8.1875 C 6.96875 -8.1875 8.34375 -7.53125 9.59375 -4.046875 C 10.671875 -0.953125 12.328125 0 15.984375 0 L 15.984375 -0.328125 C 13.921875 -0.328125 12.9375 -1.234375 11.796875 -4.203125 Z M 3.890625 -8.546875 L 3.890625 -17.359375 L 5.625 -17.359375 C 8.21875 -17.359375 10.765625 -16.46875 10.765625 -12.953125 C 10.765625 -9.4375 8.21875 -8.546875 5.625 -8.546875 Z M 3.890625 -8.546875 "/></g></g></g><g fill="#fb9400" fill-opacity="1"><g transform="translate(159.073962, 266.041298)"><g><path d="M 1.546875 -17.71875 C 1.6875 -15.859375 1.734375 -14.96875 1.734375 -13.34375 L 1.734375 -4.359375 C 1.734375 -2.75 1.6875 -1.859375 1.546875 0 L 4.078125 0 C 3.9375 -1.859375 3.890625 -2.75 3.890625 -4.359375 L 3.890625 -13.34375 C 3.890625 -14.96875 3.9375 -15.859375 4.078125 -17.71875 Z M 1.546875 -17.71875 "/></g></g></g><g fill="#ffffff" fill-opacity="1"><g transform="translate(164.72517, 266.041298)"><g><path d="M 1.546875 0 L 2.265625 0 C 2.109375 -1.859375 2.078125 -2.75 2.078125 -4.359375 L 2.078125 -16.578125 L 9.734375 0.4375 L 10.140625 0.4375 L 17.421875 -16.65625 L 17.421875 -4.359375 C 17.421875 -2.75 17.40625 -1.859375 17.265625 0 L 19.796875 0 C 19.640625 -1.859375 19.609375 -2.75 19.609375 -4.359375 L 19.609375 -13.34375 C 19.609375 -14.96875 19.640625 -15.859375 19.796875 -17.71875 L 17.515625 -17.71875 L 10.921875 -2.5 L 3.984375 -17.71875 L 1.546875 -17.71875 C 1.6875 -15.859375 1.734375 -14.96875 1.734375 -13.34375 L 1.734375 -4.359375 C 1.734375 -2.75 1.6875 -1.859375 1.546875 0 Z M 1.546875 0 "/></g></g></g><g fill="#fb9400" fill-opacity="1"><g transform="translate(186.090196, 266.041298)"><g/></g></g><g fill="#ffffff" fill-opacity="1"><g transform="translate(192.433388, 266.041298)"><g><path d="M 14.265625 -17.71875 L 0.4375 -17.71875 L 1.421875 -16.46875 C 3.328125 -17.21875 5.03125 -17.359375 6 -17.359375 L 6.265625 -17.359375 L 6.265625 -4.359375 C 6.265625 -2.75 6.21875 -1.859375 6.09375 0 L 8.609375 0 C 8.484375 -1.859375 8.4375 -2.75 8.4375 -4.359375 L 8.4375 -17.359375 L 8.703125 -17.359375 C 9.671875 -17.359375 11.375 -17.21875 13.28125 -16.46875 Z M 14.265625 -17.71875 "/></g></g></g><g fill="#ffffff" fill-opacity="1"><g transform="translate(207.136795, 266.041298)"><g><path d="M 1.546875 -17.71875 C 1.6875 -15.859375 1.734375 -14.96875 1.734375 -13.34375 L 1.734375 -4.359375 C 1.734375 -2.75 1.6875 -1.859375 1.546875 0 L 4.078125 0 C 3.9375 -1.859375 3.890625 -2.75 3.890625 -4.359375 L 3.890625 -13.34375 C 3.890625 -14.96875 3.9375 -15.859375 4.078125 -17.71875 Z M 1.546875 -17.71875 "/></g></g></g><g fill="#fb9400" fill-opacity="1"><g transform="translate(212.78927, 266.041298)"><g><path d="M 1.546875 0 L 2.265625 0 C 2.109375 -1.859375 2.078125 -2.75 2.078125 -4.359375 L 2.078125 -16.578125 L 9.734375 0.4375 L 10.140625 0.4375 L 17.421875 -16.65625 L 17.421875 -4.359375 C 17.421875 -2.75 17.40625 -1.859375 17.265625 0 L 19.796875 0 C 19.640625 -1.859375 19.609375 -2.75 19.609375 -4.359375 L 19.609375 -13.34375 C 19.609375 -14.96875 19.640625 -15.859375 19.796875 -17.71875 L 17.515625 -17.71875 L 10.921875 -2.5 L 3.984375 -17.71875 L 1.546875 -17.71875 C 1.6875 -15.859375 1.734375 -14.96875 1.734375 -13.34375 L 1.734375 -4.359375 C 1.734375 -2.75 1.6875 -1.859375 1.546875 0 Z M 1.546875 0 "/></g></g></g><g fill="#fb9400" fill-opacity="1"><g transform="translate(234.135769, 266.041298)"><g><path d="M 1.546875 -17.71875 C 1.734375 -15.859375 1.75 -14.96875 1.75 -13.34375 L 1.75 -4.359375 C 1.75 -2.75 1.734375 -1.859375 1.546875 0 L 11.953125 0 L 12.59375 -1.203125 C 10.125 -0.46875 8.609375 -0.359375 6.421875 -0.359375 L 3.9375 -0.359375 L 3.9375 -9.203125 L 5.359375 -9.203125 C 6.53125 -9.203125 7.734375 -9.203125 9.78125 -8.984375 L 9.78125 -9.78125 C 7.734375 -9.5625 6.53125 -9.5625 5.359375 -9.5625 L 3.9375 -9.5625 L 3.9375 -17.359375 L 5.953125 -17.359375 C 6.953125 -17.359375 9.125 -17.21875 11 -16.46875 L 12 -17.71875 Z M 1.546875 -17.71875 "/></g></g></g><g fill="#fb9400" fill-opacity="1"><g transform="translate(120.687076, 283.651208)"><g><path d="M 6.78125 -9.28125 L 0.234375 -9.28125 L 0.65625 -8.796875 C 1.65625 -9.078125 2.609375 -9.140625 3.046875 -9.140625 L 3.171875 -9.140625 L 3.171875 -2.171875 C 3.171875 -1.453125 3.171875 -1.03125 3.109375 0 L 3.90625 0 C 3.84375 -1.03125 3.84375 -1.453125 3.84375 -2.171875 L 3.84375 -9.140625 L 3.953125 -9.140625 C 4.40625 -9.140625 5.359375 -9.078125 6.359375 -8.796875 Z M 6.78125 -9.28125 "/></g></g></g><g fill="#fb9400" fill-opacity="1"><g transform="translate(130.720785, 283.651208)"><g><path d="M 6.71875 -7.109375 C 6.71875 -7.8125 6.71875 -8.25 6.796875 -9.28125 L 5.984375 -9.28125 C 6.046875 -8.25 6.0625 -7.8125 6.0625 -7.109375 L 6.0625 -4.703125 L 1.546875 -4.703125 L 1.546875 -7.109375 C 1.546875 -7.8125 1.546875 -8.25 1.609375 -9.28125 L 0.8125 -9.28125 C 0.875 -8.25 0.875 -7.8125 0.875 -7.109375 L 0.875 -2.171875 C 0.875 -1.453125 0.875 -1.03125 0.8125 0 L 1.609375 0 C 1.546875 -1.03125 1.546875 -1.453125 1.546875 -2.171875 L 1.546875 -4.5625 L 6.0625 -4.5625 L 6.0625 -2.171875 C 6.0625 -1.453125 6.046875 -1.03125 5.984375 0 L 6.796875 0 C 6.71875 -1.03125 6.71875 -1.453125 6.71875 -2.171875 Z M 6.71875 -7.109375 "/></g></g></g><g fill="#fb9400" fill-opacity="1"><g transform="translate(141.346074, 283.651208)"><g><path d="M 0.8125 -9.28125 C 0.890625 -8.25 0.90625 -7.8125 0.90625 -7.109375 L 0.90625 -2.171875 C 0.90625 -1.453125 0.890625 -1.03125 0.8125 0 L 5.859375 0 L 6.140625 -0.46875 C 5 -0.203125 4.140625 -0.15625 3.03125 -0.15625 L 1.5625 -0.15625 L 1.5625 -4.875 L 2.390625 -4.875 C 3 -4.875 3.625 -4.875 4.703125 -4.75 L 4.703125 -5.125 C 3.625 -5.015625 3 -5.015625 2.390625 -5.015625 L 1.5625 -5.015625 L 1.5625 -9.140625 L 2.65625 -9.140625 C 3.109375 -9.140625 4.359375 -9.078125 5.375 -8.796875 L 5.78125 -9.28125 Z M 0.8125 -9.28125 "/></g></g></g><g fill="#fb9400" fill-opacity="1"><g transform="translate(150.846201, 283.651208)"><g/></g></g><g fill="#fb9400" fill-opacity="1"><g transform="translate(157.144809, 283.651208)"><g><path d="M 3.890625 -5.296875 C 5.3125 -5.5 5.875 -6.171875 5.875 -7.234375 C 5.875 -9.03125 4.1875 -9.28125 2.78125 -9.28125 L 0.8125 -9.28125 C 0.875 -8.25 0.875 -7.8125 0.875 -7.109375 L 0.875 -2.171875 C 0.875 -1.453125 0.875 -1.03125 0.8125 0 L 2.921875 0 C 4.765625 0 6.484375 -0.59375 6.484375 -2.578125 C 6.484375 -4.328125 5.171875 -5.0625 3.890625 -5.296875 Z M 1.546875 -9.140625 L 2.625 -9.140625 C 3.609375 -9.140625 5.171875 -8.84375 5.171875 -7.234375 C 5.171875 -6.078125 4.53125 -5.375 2.78125 -5.375 L 1.546875 -5.375 Z M 2.734375 -0.15625 L 1.546875 -0.15625 L 1.546875 -5.234375 L 2.90625 -5.234375 C 3.859375 -5.234375 5.734375 -4.734375 5.734375 -2.609375 C 5.734375 -0.828125 4.296875 -0.15625 2.734375 -0.15625 Z M 2.734375 -0.15625 "/></g></g></g><g fill="#fb9400" fill-opacity="1"><g transform="translate(167.224906, 283.651208)"><g><path d="M 6.265625 -1.15625 L 3.953125 -9.28125 L 3.140625 -9.28125 C 3.21875 -9.078125 3.21875 -8.96875 3.171875 -8.765625 L 0.96875 -1.109375 C 0.84375 -0.6875 0.8125 -0.46875 0.578125 0 L 0.859375 0 C 0.890625 -0.46875 1 -0.6875 1.125 -1.125 L 1.78125 -3.421875 L 4.921875 -3.421875 L 5.578125 -1.15625 C 5.703125 -0.6875 5.78125 -0.484375 5.8125 0 L 6.71875 0 C 6.5 -0.453125 6.40625 -0.671875 6.265625 -1.15625 Z M 1.8125 -3.5625 L 3.359375 -8.890625 L 4.890625 -3.5625 Z M 1.8125 -3.5625 "/></g></g></g><g fill="#fb9400" fill-opacity="1"><g transform="translate(177.536999, 283.651208)"><g><path d="M 5.46875 -2.234375 C 4.96875 -3.59375 4.171875 -4.125 3.265625 -4.3125 C 4.890625 -4.4375 6.1875 -5.046875 6.1875 -6.78125 C 6.1875 -8.78125 4.5 -9.28125 2.53125 -9.28125 L 0.8125 -9.28125 C 0.875 -8.25 0.875 -7.8125 0.875 -7.109375 L 0.875 -2.171875 C 0.875 -1.453125 0.875 -1.03125 0.8125 0 L 1.609375 0 C 1.546875 -1.03125 1.546875 -1.453125 1.546875 -2.171875 L 1.546875 -4.296875 L 2.046875 -4.296875 C 3.296875 -4.296875 4.171875 -3.9375 4.828125 -2.140625 C 5.375 -0.609375 6 0 7.71875 0 L 7.71875 -0.140625 C 6.609375 -0.140625 6.09375 -0.59375 5.46875 -2.234375 Z M 1.546875 -4.4375 L 1.546875 -9.140625 L 2.53125 -9.140625 C 4 -9.140625 5.484375 -8.671875 5.484375 -6.78125 C 5.484375 -4.90625 4 -4.4375 2.53125 -4.4375 Z M 1.546875 -4.4375 "/></g></g></g><g fill="#fb9400" fill-opacity="1"><g transform="translate(188.719072, 283.651208)"><g><path d="M 3.890625 -5.296875 C 5.3125 -5.5 5.875 -6.171875 5.875 -7.234375 C 5.875 -9.03125 4.1875 -9.28125 2.78125 -9.28125 L 0.8125 -9.28125 C 0.875 -8.25 0.875 -7.8125 0.875 -7.109375 L 0.875 -2.171875 C 0.875 -1.453125 0.875 -1.03125 0.8125 0 L 2.921875 0 C 4.765625 0 6.484375 -0.59375 6.484375 -2.578125 C 6.484375 -4.328125 5.171875 -5.0625 3.890625 -5.296875 Z M 1.546875 -9.140625 L 2.625 -9.140625 C 3.609375 -9.140625 5.171875 -8.84375 5.171875 -7.234375 C 5.171875 -6.078125 4.53125 -5.375 2.78125 -5.375 L 1.546875 -5.375 Z M 2.734375 -0.15625 L 1.546875 -0.15625 L 1.546875 -5.234375 L 2.90625 -5.234375 C 3.859375 -5.234375 5.734375 -4.734375 5.734375 -2.609375 C 5.734375 -0.828125 4.296875 -0.15625 2.734375 -0.15625 Z M 2.734375 -0.15625 "/></g></g></g><g fill="#fb9400" fill-opacity="1"><g transform="translate(198.799172, 283.651208)"><g><path d="M 0.8125 -9.28125 C 0.890625 -8.25 0.90625 -7.8125 0.90625 -7.109375 L 0.90625 -2.171875 C 0.90625 -1.453125 0.890625 -1.03125 0.8125 0 L 5.859375 0 L 6.140625 -0.46875 C 5 -0.203125 4.140625 -0.15625 3.03125 -0.15625 L 1.5625 -0.15625 L 1.5625 -4.875 L 2.390625 -4.875 C 3 -4.875 3.625 -4.875 4.703125 -4.75 L 4.703125 -5.125 C 3.625 -5.015625 3 -5.015625 2.390625 -5.015625 L 1.5625 -5.015625 L 1.5625 -9.140625 L 2.65625 -9.140625 C 3.109375 -9.140625 4.359375 -9.078125 5.375 -8.796875 L 5.78125 -9.28125 Z M 0.8125 -9.28125 "/></g></g></g><g fill="#fb9400" fill-opacity="1"><g transform="translate(208.2993, 283.651208)"><g><path d="M 5.46875 -2.234375 C 4.96875 -3.59375 4.171875 -4.125 3.265625 -4.3125 C 4.890625 -4.4375 6.1875 -5.046875 6.1875 -6.78125 C 6.1875 -8.78125 4.5 -9.28125 2.53125 -9.28125 L 0.8125 -9.28125 C 0.875 -8.25 0.875 -7.8125 0.875 -7.109375 L 0.875 -2.171875 C 0.875 -1.453125 0.875 -1.03125 0.8125 0 L 1.609375 0 C 1.546875 -1.03125 1.546875 -1.453125 1.546875 -2.171875 L 1.546875 -4.296875 L 2.046875 -4.296875 C 3.296875 -4.296875 4.171875 -3.9375 4.828125 -2.140625 C 5.375 -0.609375 6 0 7.71875 0 L 7.71875 -0.140625 C 6.609375 -0.140625 6.09375 -0.59375 5.46875 -2.234375 Z M 1.546875 -4.4375 L 1.546875 -9.140625 L 2.53125 -9.140625 C 4 -9.140625 5.484375 -8.671875 5.484375 -6.78125 C 5.484375 -4.90625 4 -4.4375 2.53125 -4.4375 Z M 1.546875 -4.4375 "/></g></g></g><g fill="#fb9400" fill-opacity="1"><g transform="translate(219.481376, 283.651208)"><g/></g></g><g fill="#fb9400" fill-opacity="1"><g transform="translate(225.779989, 283.651208)"><g><path d="M 6.71875 -7.109375 C 6.71875 -7.8125 6.71875 -8.25 6.796875 -9.28125 L 5.984375 -9.28125 C 6.046875 -8.25 6.0625 -7.8125 6.0625 -7.109375 L 6.0625 -4.703125 L 1.546875 -4.703125 L 1.546875 -7.109375 C 1.546875 -7.8125 1.546875 -8.25 1.609375 -9.28125 L 0.8125 -9.28125 C 0.875 -8.25 0.875 -7.8125 0.875 -7.109375 L 0.875 -2.171875 C 0.875 -1.453125 0.875 -1.03125 0.8125 0 L 1.609375 0 C 1.546875 -1.03125 1.546875 -1.453125 1.546875 -2.171875 L 1.546875 -4.5625 L 6.0625 -4.5625 L 6.0625 -2.171875 C 6.0625 -1.453125 6.046875 -1.03125 5.984375 0 L 6.796875 0 C 6.71875 -1.03125 6.71875 -1.453125 6.71875 -2.171875 Z M 6.71875 -7.109375 "/></g></g></g><g fill="#fb9400" fill-opacity="1"><g transform="translate(236.40528, 283.651208)"><g><path d="M 0.703125 -9.28125 C 0.765625 -8.25 0.765625 -7.8125 0.765625 -7.109375 L 0.765625 -3.9375 C 0.765625 -0.65625 1.953125 0.234375 3.984375 0.234375 C 5.96875 0.234375 7.015625 -0.90625 7.015625 -3.9375 L 7.015625 -7.109375 C 7.015625 -7.8125 7.015625 -8.25 7.078125 -9.28125 L 6.796875 -9.28125 C 6.859375 -8.25 6.859375 -7.8125 6.859375 -7.109375 L 6.859375 -3.9375 C 6.859375 -1.03125 5.90625 0.015625 4.078125 0.015625 C 2.25 0.015625 1.421875 -1.140625 1.421875 -3.9375 L 1.421875 -7.109375 C 1.421875 -7.8125 1.4375 -8.25 1.5 -9.28125 Z M 0.703125 -9.28125 "/></g></g></g><g fill="#fb9400" fill-opacity="1"><g transform="translate(247.204573, 283.651208)"><g><path d="M 3.890625 -5.296875 C 5.3125 -5.5 5.875 -6.171875 5.875 -7.234375 C 5.875 -9.03125 4.1875 -9.28125 2.78125 -9.28125 L 0.8125 -9.28125 C 0.875 -8.25 0.875 -7.8125 0.875 -7.109375 L 0.875 -2.171875 C 0.875 -1.453125 0.875 -1.03125 0.8125 0 L 2.921875 0 C 4.765625 0 6.484375 -0.59375 6.484375 -2.578125 C 6.484375 -4.328125 5.171875 -5.0625 3.890625 -5.296875 Z M 1.546875 -9.140625 L 2.625 -9.140625 C 3.609375 -9.140625 5.171875 -8.84375 5.171875 -7.234375 C 5.171875 -6.078125 4.53125 -5.375 2.78125 -5.375 L 1.546875 -5.375 Z M 2.734375 -0.15625 L 1.546875 -0.15625 L 1.546875 -5.234375 L 2.90625 -5.234375 C 3.859375 -5.234375 5.734375 -4.734375 5.734375 -2.609375 C 5.734375 -0.828125 4.296875 -0.15625 2.734375 -0.15625 Z M 2.734375 -0.15625 "/></g></g></g></svg>