<svg xmlns="http://www.w3.org/2000/svg" xmlns:xlink="http://www.w3.org/1999/xlink" width="500" zoomAndPan="magnify" viewBox="0 0 375 374.999991" height="500" preserveAspectRatio="xMidYMid meet" version="1.0"><defs><filter x="0%" y="0%" width="100%" height="100%" id="49c9411302"><feColorMatrix values="0 0 0 0 1 0 0 0 0 1 0 0 0 0 1 0 0 0 1 0" color-interpolation-filters="sRGB"/></filter><g/><mask id="9f36ec45c9"><g filter="url(#49c9411302)"><rect x="-37.5" width="450" fill="#000000" y="-37.499999" height="449.999989" fill-opacity="0.12"/></g></mask><clipPath id="628c52a3e5"><path d="M 0 58 L 4.917969 58 L 4.917969 61 L 0 61 Z M 0 58 " clip-rule="nonzero"/></clipPath><clipPath id="05181c7453"><rect x="0" width="6" y="0" height="65"/></clipPath><clipPath id="31bbfb35b8"><path d="M 75 121 L 96 121 L 96 137 L 75 137 Z M 75 121 " clip-rule="nonzero"/></clipPath><clipPath id="7ce1371264"><path d="M 64.417969 139.375 L 77.664062 118.445312 L 98.59375 131.691406 L 85.347656 152.621094 Z M 64.417969 139.375 " clip-rule="nonzero"/></clipPath><clipPath id="2ab7f92403"><path d="M 5.371094 232.679688 L 144.898438 12.199219 L 365.375 151.730469 L 225.847656 372.207031 Z M 5.371094 232.679688 " clip-rule="nonzero"/></clipPath><clipPath id="300945c0bf"><path d="M 120 75 L 135 75 L 135 97 L 120 97 Z M 120 75 " clip-rule="nonzero"/></clipPath><clipPath id="c3c5065713"><path d="M 104.476562 84.929688 L 126.039062 72.742188 L 138.226562 94.308594 L 116.660156 106.492188 Z M 104.476562 84.929688 " clip-rule="nonzero"/></clipPath><clipPath id="0eb6af2559"><path d="M 8.34375 139.253906 L 235.5 10.882812 L 363.867188 238.039062 L 136.710938 366.410156 Z M 8.34375 139.253906 " clip-rule="nonzero"/></clipPath><clipPath id="92cfeb2e54"><path d="M 239 75 L 254 75 L 254 97 L 239 97 Z M 239 75 " clip-rule="nonzero"/></clipPath><clipPath id="7c80e824f7"><path d="M 258.007812 106.472656 L 236.417969 94.328125 L 248.5625 72.738281 L 270.152344 84.882812 Z M 258.007812 106.472656 " clip-rule="nonzero"/></clipPath><clipPath id="e5a2291fa5"><path d="M 354.25 160.597656 L 126.832031 32.695312 L 254.730469 -194.722656 L 482.152344 -66.820312 Z M 354.25 160.597656 " clip-rule="nonzero"/></clipPath><clipPath id="048f3e0dd4"><path d="M 279 121 L 300 121 L 300 138 L 279 138 Z M 279 121 " clip-rule="nonzero"/></clipPath><clipPath id="bc235283a5"><path d="M 290.605469 152.984375 L 276.207031 132.824219 L 296.367188 118.429688 L 310.761719 138.585938 Z M 290.605469 152.984375 " clip-rule="nonzero"/></clipPath><clipPath id="42cc8198b4"><path d="M 374.917969 228.457031 L 223.269531 16.128906 L 10.945312 167.777344 L 162.59375 380.101562 Z M 374.917969 228.457031 " clip-rule="nonzero"/></clipPath><clipPath id="fe636c686f"><path d="M 163 116 L 230.679688 116 L 230.679688 166 L 163 166 Z M 163 116 " clip-rule="nonzero"/></clipPath><clipPath id="b349e8dc35"><path d="M 178 92.808594 L 190 92.808594 L 190 172 L 178 172 Z M 178 92.808594 " clip-rule="nonzero"/></clipPath><clipPath id="6c4996707c"><path d="M 179 191 L 188 191 L 188 201.800781 L 179 201.800781 Z M 179 191 " clip-rule="nonzero"/></clipPath></defs><g mask="url(#9f36ec45c9)"><g transform="matrix(1, 0, 0, 1, 0, 26)"><g clip-path="url(#05181c7453)"><g clip-path="url(#628c52a3e5)"><path fill="#000000" d="M -4.363281 60.855469 L 3.371094 60.855469 C 5.117188 60.855469 5.117188 58.152344 3.371094 58.152344 L -4.363281 58.152344 C -6.109375 58.152344 -6.109375 60.855469 -4.363281 60.855469 Z M -4.363281 60.855469 " fill-opacity="1" fill-rule="nonzero"/></g></g></g></g><path fill="#fb9400" d="M 77.832031 186.476562 L 61.089844 186.476562 C 57.253906 186.476562 57.253906 192.421875 61.089844 192.421875 L 77.832031 192.421875 C 81.667969 192.421875 81.667969 186.476562 77.832031 186.476562 Z M 77.832031 186.476562 " fill-opacity="1" fill-rule="nonzero"/><path fill="#fb9400" d="M 314.058594 186.476562 L 297.3125 186.476562 C 293.480469 186.476562 293.480469 192.421875 297.3125 192.421875 L 314.058594 192.421875 C 317.890625 192.421875 317.890625 186.476562 314.058594 186.476562 Z M 314.058594 186.476562 " fill-opacity="1" fill-rule="nonzero"/><g clip-path="url(#31bbfb35b8)"><g clip-path="url(#7ce1371264)"><g clip-path="url(#2ab7f92403)"><path fill="#fb9400" d="M 93.976562 131.128906 L 79.828125 122.175781 C 76.589844 120.125 73.410156 125.148438 76.652344 127.199219 L 90.796875 136.152344 C 94.039062 138.203125 97.21875 133.179688 93.976562 131.128906 Z M 93.976562 131.128906 " fill-opacity="1" fill-rule="nonzero"/></g></g></g><path fill="#ffffff" d="M 183.96875 62.917969 L 183.96875 79.660156 C 183.96875 83.496094 189.914062 83.496094 189.914062 79.660156 L 189.914062 62.917969 C 189.914062 59.085938 183.96875 59.085938 183.96875 62.917969 Z M 183.96875 62.917969 " fill-opacity="1" fill-rule="nonzero"/><g clip-path="url(#300945c0bf)"><g clip-path="url(#c3c5065713)"><g clip-path="url(#0eb6af2559)"><path fill="#fb9400" d="M 134.421875 91.632812 L 126.1875 77.054688 C 124.300781 73.71875 119.125 76.640625 121.011719 79.980469 L 129.246094 94.554688 C 131.132812 97.894531 136.308594 94.96875 134.421875 91.632812 Z M 134.421875 91.632812 " fill-opacity="1" fill-rule="nonzero"/></g></g></g><g clip-path="url(#92cfeb2e54)"><g clip-path="url(#7c80e824f7)"><g clip-path="url(#e5a2291fa5)"><path fill="#ffffff" d="M 248.242188 77.378906 L 240.03125 91.972656 C 238.152344 95.3125 243.335938 98.226562 245.214844 94.886719 L 253.421875 80.292969 C 255.300781 76.949219 250.121094 74.035156 248.242188 77.378906 Z M 248.242188 77.378906 " fill-opacity="1" fill-rule="nonzero"/></g></g></g><g clip-path="url(#048f3e0dd4)"><g clip-path="url(#bc235283a5)"><g clip-path="url(#42cc8198b4)"><path fill="#fb9400" d="M 280.765625 132.023438 L 294.390625 122.292969 C 297.511719 120.0625 300.964844 124.902344 297.847656 127.128906 L 284.222656 136.859375 C 281.101562 139.089844 277.644531 134.25 280.765625 132.023438 Z M 280.765625 132.023438 " fill-opacity="1" fill-rule="nonzero"/></g></g></g><path fill="#fb9400" d="M 180.777344 153.332031 C 180.660156 152.421875 181.300781 151.585938 182.214844 151.472656 C 183.121094 151.351562 183.957031 151.996094 184.074219 152.90625 C 184.191406 153.816406 183.546875 154.648438 182.636719 154.765625 C 181.726562 154.882812 180.894531 154.238281 180.777344 153.332031 " fill-opacity="1" fill-rule="nonzero"/><g clip-path="url(#fe636c686f)"><path fill="#fb9400" d="M 177.273438 151.949219 C 175.347656 153.292969 173.46875 154.449219 172.472656 155.042969 C 172.472656 155.042969 169.515625 157.683594 163.15625 157.421875 L 166.296875 161.820312 C 166.304688 162.035156 167.746094 164.972656 167.730469 165.1875 L 168.402344 165.847656 C 169.671875 160.449219 173.878906 158.800781 173.878906 158.800781 C 175.871094 157.351562 178.207031 157.210938 178.207031 157.210938 C 178.207031 157.210938 181.570312 158.894531 184.738281 156.578125 C 187.308594 154.699219 187.703125 151.820312 189.421875 150.554688 C 194.601562 146.757812 230.191406 116.007812 230.191406 116.007812 C 230.191406 116.007812 186.855469 145.980469 177.273438 151.949219 " fill-opacity="1" fill-rule="nonzero"/></g><path fill="#fb9400" d="M 161.820312 172.941406 C 157.574219 176.351562 152.1875 176.695312 149.785156 173.707031 C 147.382812 170.714844 148.878906 165.527344 153.125 162.117188 C 157.371094 158.703125 162.761719 158.363281 165.164062 161.355469 C 167.5625 164.34375 166.070312 169.53125 161.820312 172.941406 Z M 167.128906 159.773438 C 164.113281 156.019531 157.347656 156.449219 152.011719 160.730469 C 146.679688 165.015625 144.800781 171.53125 147.820312 175.285156 C 150.835938 179.039062 157.601562 178.609375 162.933594 174.328125 C 168.265625 170.042969 170.144531 163.527344 167.128906 159.773438 " fill-opacity="1" fill-rule="nonzero"/><g clip-path="url(#b349e8dc35)"><path fill="#fb9400" d="M 186.097656 156.769531 C 186.003906 159.117188 186.046875 161.324219 186.082031 162.480469 C 186.082031 162.480469 185.460938 166.398438 189.113281 171.609375 L 183.714844 171.34375 C 183.53125 171.453125 180.28125 171.820312 180.105469 171.953125 L 179.1875 171.746094 C 183.046875 167.761719 182.164062 163.328125 182.164062 163.328125 C 182.308594 160.867188 181.164062 158.828125 181.164062 158.828125 C 181.164062 158.828125 177.929688 156.902344 178.167969 152.984375 C 178.363281 149.808594 180.574219 147.925781 180.710938 145.792969 C 181.109375 139.382812 187.773438 92.824219 187.773438 92.824219 C 187.773438 92.824219 185.945312 145.484375 186.097656 156.769531 " fill-opacity="1" fill-rule="nonzero"/></g><path fill="#fb9400" d="M 184.71875 172.042969 C 188.53125 172.449219 191.15625 177.167969 190.578125 182.585938 C 190 188 186.441406 192.0625 182.628906 191.65625 C 178.8125 191.246094 176.191406 186.527344 176.769531 181.113281 C 177.347656 175.695312 180.90625 171.636719 184.71875 172.042969 Z M 175.003906 180.925781 C 174.277344 187.722656 177.570312 193.652344 182.359375 194.164062 C 187.148438 194.675781 191.617188 189.574219 192.34375 182.773438 C 193.066406 175.972656 189.773438 170.046875 184.988281 169.535156 C 180.199219 169.023438 175.730469 174.121094 175.003906 180.925781 " fill-opacity="1" fill-rule="nonzero"/><path fill="#181a20" d="M 183.042969 154.566406 C 183.871094 154.175781 184.226562 153.1875 183.832031 152.355469 C 183.441406 151.523438 182.449219 151.171875 181.617188 151.566406 C 180.789062 151.957031 180.4375 152.949219 180.828125 153.777344 C 181.222656 154.609375 182.214844 154.960938 183.042969 154.566406 " fill-opacity="1" fill-rule="nonzero"/><g clip-path="url(#6c4996707c)"><path fill="#fb9400" d="M 183.921875 201.359375 C 184.5 201.675781 185.136719 201.953125 185.847656 202.175781 C 186.527344 202.390625 187.25 202.015625 187.464844 201.339844 C 187.683594 200.660156 187.308594 199.933594 186.628906 199.71875 C 181.28125 198.019531 181.707031 193 181.730469 192.789062 C 181.796875 192.082031 181.28125 191.449219 180.570312 191.382812 C 179.863281 191.3125 179.230469 191.832031 179.164062 192.539062 C 178.945312 194.753906 179.753906 199.082031 183.921875 201.359375 " fill-opacity="1" fill-rule="nonzero"/></g><path fill="#fb9400" d="M 183.652344 194.164062 C 183.652344 194.164062 181.648438 194.472656 182.09375 195.5 C 182.542969 196.523438 180.066406 195.816406 180.066406 195.816406 L 179.207031 194.363281 C 179.207031 194.363281 179.191406 193.3125 178.132812 191.984375 C 177.074219 190.660156 178.363281 190.988281 178.605469 191.121094 C 178.847656 191.253906 184.089844 193.714844 183.652344 194.164062 " fill-opacity="1" fill-rule="nonzero"/><g fill="#fb9400" fill-opacity="1"><g transform="translate(6.542508, 267.410804)"><g><path d="M 43.109375 -53.546875 L 1.34375 -53.546875 L 4.28125 -49.796875 C 10.046875 -52.078125 15.1875 -52.484375 18.140625 -52.484375 L 18.9375 -52.484375 L 18.9375 -13.1875 C 18.9375 -8.296875 18.8125 -5.625 18.40625 0 L 26.03125 0 C 25.640625 -5.625 25.5 -8.296875 25.5 -13.1875 L 25.5 -52.484375 L 26.3125 -52.484375 C 29.25 -52.484375 34.40625 -52.078125 40.15625 -49.796875 Z M 43.109375 -53.546875 "/></g></g></g><g fill="#ffffff" fill-opacity="1"><g transform="translate(50.974977, 267.410804)"><g><path d="M 35.671875 -12.71875 C 32.46875 -20.75 27.578125 -23.828125 21.75 -24.90625 C 31.59375 -25.640625 39.359375 -29.046875 39.359375 -39.15625 C 39.359375 -50.8125 28.984375 -53.546875 17.0625 -53.546875 L 4.6875 -53.546875 C 5.09375 -47.921875 5.21875 -45.25 5.21875 -40.359375 L 5.21875 -13.1875 C 5.21875 -8.296875 5.09375 -5.625 4.6875 0 L 12.3125 0 C 11.921875 -5.625 11.78125 -8.296875 11.78125 -13.1875 L 11.78125 -24.765625 L 14.1875 -24.765625 C 21.078125 -24.765625 25.234375 -22.765625 28.984375 -12.25 C 32.265625 -2.875 37.28125 0 48.328125 0 L 48.328125 -1 C 42.109375 -1 39.09375 -3.75 35.671875 -12.71875 Z M 11.78125 -25.84375 L 11.78125 -52.484375 L 17 -52.484375 C 24.828125 -52.484375 32.53125 -49.796875 32.53125 -39.15625 C 32.53125 -28.515625 24.828125 -25.84375 17 -25.84375 Z M 11.78125 -25.84375 "/></g></g></g><g fill="#fb9400" fill-opacity="1"><g transform="translate(101.780745, 267.410804)"><g><path d="M 4.6875 -53.546875 C 5.09375 -47.921875 5.21875 -45.25 5.21875 -40.359375 L 5.21875 -13.1875 C 5.21875 -8.296875 5.09375 -5.625 4.6875 0 L 12.3125 0 C 11.921875 -5.625 11.78125 -8.296875 11.78125 -13.1875 L 11.78125 -40.359375 C 11.78125 -45.25 11.921875 -47.921875 12.3125 -53.546875 Z M 4.6875 -53.546875 "/></g></g></g><g fill="#ffffff" fill-opacity="1"><g transform="translate(118.784808, 267.410804)"><g><path d="M 4.6875 0 L 6.828125 0 C 6.359375 -5.625 6.296875 -8.296875 6.296875 -13.1875 L 6.296875 -50.140625 L 29.453125 1.34375 L 30.65625 1.34375 L 52.6875 -50.34375 L 52.6875 -13.1875 C 52.6875 -8.296875 52.609375 -5.625 52.21875 0 L 59.84375 0 C 59.375 -5.625 59.3125 -8.296875 59.3125 -13.1875 L 59.3125 -40.359375 C 59.3125 -45.25 59.375 -47.921875 59.84375 -53.546875 L 52.953125 -53.546875 L 33 -7.5625 L 12.046875 -53.546875 L 4.6875 -53.546875 C 5.09375 -47.921875 5.21875 -45.25 5.21875 -40.359375 L 5.21875 -13.1875 C 5.21875 -8.296875 5.09375 -5.625 4.6875 0 Z M 4.6875 0 "/></g></g></g><g fill="#fb9400" fill-opacity="1"><g transform="translate(183.291877, 267.410804)"><g/></g></g><g fill="#ffffff" fill-opacity="1"><g transform="translate(202.437575, 267.410804)"><g><path d="M 43.109375 -53.546875 L 1.34375 -53.546875 L 4.28125 -49.796875 C 10.046875 -52.078125 15.1875 -52.484375 18.140625 -52.484375 L 18.9375 -52.484375 L 18.9375 -13.1875 C 18.9375 -8.296875 18.8125 -5.625 18.40625 0 L 26.03125 0 C 25.640625 -5.625 25.5 -8.296875 25.5 -13.1875 L 25.5 -52.484375 L 26.3125 -52.484375 C 29.25 -52.484375 34.40625 -52.078125 40.15625 -49.796875 Z M 43.109375 -53.546875 "/></g></g></g><g fill="#ffffff" fill-opacity="1"><g transform="translate(246.863695, 267.410804)"><g><path d="M 4.6875 -53.546875 C 5.09375 -47.921875 5.21875 -45.25 5.21875 -40.359375 L 5.21875 -13.1875 C 5.21875 -8.296875 5.09375 -5.625 4.6875 0 L 12.3125 0 C 11.921875 -5.625 11.78125 -8.296875 11.78125 -13.1875 L 11.78125 -40.359375 C 11.78125 -45.25 11.921875 -47.921875 12.3125 -53.546875 Z M 4.6875 -53.546875 "/></g></g></g><g fill="#fb9400" fill-opacity="1"><g transform="translate(263.874108, 267.410804)"><g><path d="M 4.6875 0 L 6.828125 0 C 6.359375 -5.625 6.296875 -8.296875 6.296875 -13.1875 L 6.296875 -50.140625 L 29.453125 1.34375 L 30.65625 1.34375 L 52.6875 -50.34375 L 52.6875 -13.1875 C 52.6875 -8.296875 52.609375 -5.625 52.21875 0 L 59.84375 0 C 59.375 -5.625 59.3125 -8.296875 59.3125 -13.1875 L 59.3125 -40.359375 C 59.3125 -45.25 59.375 -47.921875 59.84375 -53.546875 L 52.953125 -53.546875 L 33 -7.5625 L 12.046875 -53.546875 L 4.6875 -53.546875 C 5.09375 -47.921875 5.21875 -45.25 5.21875 -40.359375 L 5.21875 -13.1875 C 5.21875 -8.296875 5.09375 -5.625 4.6875 0 Z M 4.6875 0 "/></g></g></g><g fill="#fb9400" fill-opacity="1"><g transform="translate(328.372257, 267.410804)"><g><path d="M 4.6875 -53.546875 C 5.21875 -47.921875 5.28125 -45.25 5.28125 -40.359375 L 5.28125 -13.1875 C 5.28125 -8.296875 5.21875 -5.625 4.6875 0 L 36.140625 0 L 38.09375 -3.609375 C 30.59375 -1.40625 26.03125 -1.078125 19.40625 -1.078125 L 11.921875 -1.078125 L 11.921875 -27.84375 L 16.203125 -27.84375 C 19.75 -27.84375 23.359375 -27.84375 29.59375 -27.171875 L 29.59375 -29.59375 C 23.359375 -28.921875 19.75 -28.921875 16.203125 -28.921875 L 11.921875 -28.921875 L 11.921875 -52.484375 L 18 -52.484375 C 21.015625 -52.484375 27.578125 -52.078125 33.265625 -49.796875 L 36.28125 -53.546875 Z M 4.6875 -53.546875 "/></g></g></g><g fill="#fb9400" fill-opacity="1"><g transform="translate(63.746116, 308.034739)"><g><path d="M 12.5625 -17.1875 L 0.4375 -17.1875 L 1.203125 -16.3125 C 3.078125 -16.828125 4.828125 -16.9375 5.65625 -16.9375 L 5.890625 -16.9375 L 5.890625 -4.046875 C 5.890625 -2.703125 5.859375 -1.90625 5.765625 0 L 7.234375 0 C 7.109375 -1.90625 7.109375 -2.703125 7.109375 -4.046875 L 7.109375 -16.9375 L 7.328125 -16.9375 C 8.171875 -16.9375 9.921875 -16.828125 11.78125 -16.3125 Z M 12.5625 -17.1875 "/></g></g></g><g fill="#fb9400" fill-opacity="1"><g transform="translate(82.33403, 308.034739)"><g><path d="M 12.46875 -13.171875 C 12.46875 -14.484375 12.46875 -15.28125 12.59375 -17.1875 L 11.09375 -17.1875 C 11.21875 -15.28125 11.234375 -14.484375 11.234375 -13.171875 L 11.234375 -8.71875 L 2.859375 -8.71875 L 2.859375 -13.171875 C 2.859375 -14.484375 2.875 -15.28125 2.984375 -17.1875 L 1.5 -17.1875 C 1.640625 -15.28125 1.640625 -14.484375 1.640625 -13.171875 L 1.640625 -4.046875 C 1.640625 -2.703125 1.640625 -1.90625 1.5 0 L 2.984375 0 C 2.875 -1.90625 2.859375 -2.703125 2.859375 -4.046875 L 2.859375 -8.46875 L 11.234375 -8.46875 L 11.234375 -4.046875 C 11.234375 -2.703125 11.21875 -1.90625 11.09375 0 L 12.59375 0 C 12.46875 -1.90625 12.46875 -2.703125 12.46875 -4.046875 Z M 12.46875 -13.171875 "/></g></g></g><g fill="#fb9400" fill-opacity="1"><g transform="translate(102.017756, 308.034739)"><g><path d="M 1.5 -17.1875 C 1.65625 -15.28125 1.671875 -14.484375 1.671875 -13.171875 L 1.671875 -4.046875 C 1.671875 -2.703125 1.65625 -1.90625 1.5 0 L 10.875 0 L 11.359375 -0.875 C 9.265625 -0.359375 7.671875 -0.28125 5.609375 -0.28125 L 2.90625 -0.28125 L 2.90625 -9.03125 L 4.421875 -9.03125 C 5.5625 -9.03125 6.71875 -9.03125 8.71875 -8.8125 L 8.71875 -9.5 C 6.71875 -9.28125 5.5625 -9.28125 4.421875 -9.28125 L 2.90625 -9.28125 L 2.90625 -16.9375 L 4.921875 -16.9375 C 5.765625 -16.9375 8.078125 -16.828125 9.953125 -16.3125 L 10.71875 -17.1875 Z M 1.5 -17.1875 "/></g></g></g><g fill="#fb9400" fill-opacity="1"><g transform="translate(119.617295, 308.034739)"><g/></g></g><g fill="#fb9400" fill-opacity="1"><g transform="translate(131.286606, 308.034739)"><g><path d="M 7.203125 -9.8125 C 9.84375 -10.1875 10.890625 -11.4375 10.890625 -13.40625 C 10.890625 -16.734375 7.75 -17.1875 5.15625 -17.1875 L 1.5 -17.1875 C 1.640625 -15.28125 1.640625 -14.484375 1.640625 -13.171875 L 1.640625 -4.046875 C 1.640625 -2.703125 1.640625 -1.90625 1.5 0 L 5.421875 0 C 8.828125 0 12.015625 -1.09375 12.015625 -4.796875 C 12.015625 -8.015625 9.578125 -9.390625 7.203125 -9.8125 Z M 2.859375 -16.9375 L 4.859375 -16.9375 C 6.6875 -16.9375 9.578125 -16.390625 9.578125 -13.40625 C 9.578125 -11.265625 8.40625 -9.96875 5.15625 -9.96875 L 2.859375 -9.96875 Z M 5.078125 -0.28125 L 2.859375 -0.28125 L 2.859375 -9.6875 L 5.375 -9.6875 C 7.15625 -9.6875 10.640625 -8.78125 10.640625 -4.828125 C 10.640625 -1.53125 7.96875 -0.28125 5.078125 -0.28125 Z M 5.078125 -0.28125 "/></g></g></g><g fill="#fb9400" fill-opacity="1"><g transform="translate(149.960477, 308.034739)"><g><path d="M 11.625 -2.15625 L 7.328125 -17.1875 L 5.828125 -17.1875 C 5.953125 -16.828125 5.96875 -16.609375 5.890625 -16.25 L 1.8125 -2.0625 C 1.5625 -1.265625 1.5 -0.875 1.078125 0 L 1.59375 0 C 1.65625 -0.875 1.84375 -1.265625 2.078125 -2.078125 L 3.3125 -6.34375 L 9.125 -6.34375 L 10.328125 -2.15625 C 10.578125 -1.265625 10.703125 -0.90625 10.765625 0 L 12.4375 0 C 12.03125 -0.84375 11.859375 -1.25 11.625 -2.15625 Z M 3.375 -6.59375 L 6.234375 -16.484375 L 9.0625 -6.59375 Z M 3.375 -6.59375 "/></g></g></g><g fill="#fb9400" fill-opacity="1"><g transform="translate(169.064073, 308.034739)"><g><path d="M 10.140625 -4.140625 C 9.203125 -6.65625 7.734375 -7.65625 6.03125 -8 C 9.0625 -8.234375 11.46875 -9.34375 11.46875 -12.5625 C 11.46875 -16.265625 8.34375 -17.1875 4.6875 -17.1875 L 1.5 -17.1875 C 1.640625 -15.28125 1.640625 -14.484375 1.640625 -13.171875 L 1.640625 -4.046875 C 1.640625 -2.703125 1.640625 -1.90625 1.5 0 L 2.984375 0 C 2.875 -1.90625 2.859375 -2.703125 2.859375 -4.046875 L 2.859375 -7.953125 L 3.796875 -7.953125 C 6.125 -7.953125 7.734375 -7.28125 8.9375 -3.96875 C 9.96875 -1.140625 11.109375 0 14.3125 0 L 14.3125 -0.265625 C 12.25 -0.265625 11.28125 -1.09375 10.140625 -4.140625 Z M 2.859375 -8.234375 L 2.859375 -16.9375 L 4.6875 -16.9375 C 7.40625 -16.9375 10.15625 -16.078125 10.15625 -12.5625 C 10.15625 -9.09375 7.40625 -8.234375 4.6875 -8.234375 Z M 2.859375 -8.234375 "/></g></g></g><g fill="#fb9400" fill-opacity="1"><g transform="translate(189.779142, 308.034739)"><g><path d="M 7.203125 -9.8125 C 9.84375 -10.1875 10.890625 -11.4375 10.890625 -13.40625 C 10.890625 -16.734375 7.75 -17.1875 5.15625 -17.1875 L 1.5 -17.1875 C 1.640625 -15.28125 1.640625 -14.484375 1.640625 -13.171875 L 1.640625 -4.046875 C 1.640625 -2.703125 1.640625 -1.90625 1.5 0 L 5.421875 0 C 8.828125 0 12.015625 -1.09375 12.015625 -4.796875 C 12.015625 -8.015625 9.578125 -9.390625 7.203125 -9.8125 Z M 2.859375 -16.9375 L 4.859375 -16.9375 C 6.6875 -16.9375 9.578125 -16.390625 9.578125 -13.40625 C 9.578125 -11.265625 8.40625 -9.96875 5.15625 -9.96875 L 2.859375 -9.96875 Z M 5.078125 -0.28125 L 2.859375 -0.28125 L 2.859375 -9.6875 L 5.375 -9.6875 C 7.15625 -9.6875 10.640625 -8.78125 10.640625 -4.828125 C 10.640625 -1.53125 7.96875 -0.28125 5.078125 -0.28125 Z M 5.078125 -0.28125 "/></g></g></g><g fill="#fb9400" fill-opacity="1"><g transform="translate(208.453014, 308.034739)"><g><path d="M 1.5 -17.1875 C 1.65625 -15.28125 1.671875 -14.484375 1.671875 -13.171875 L 1.671875 -4.046875 C 1.671875 -2.703125 1.65625 -1.90625 1.5 0 L 10.875 0 L 11.359375 -0.875 C 9.265625 -0.359375 7.671875 -0.28125 5.609375 -0.28125 L 2.90625 -0.28125 L 2.90625 -9.03125 L 4.421875 -9.03125 C 5.5625 -9.03125 6.71875 -9.03125 8.71875 -8.8125 L 8.71875 -9.5 C 6.71875 -9.28125 5.5625 -9.28125 4.421875 -9.28125 L 2.90625 -9.28125 L 2.90625 -16.9375 L 4.921875 -16.9375 C 5.765625 -16.9375 8.078125 -16.828125 9.953125 -16.3125 L 10.71875 -17.1875 Z M 1.5 -17.1875 "/></g></g></g><g fill="#fb9400" fill-opacity="1"><g transform="translate(226.052549, 308.034739)"><g><path d="M 10.140625 -4.140625 C 9.203125 -6.65625 7.734375 -7.65625 6.03125 -8 C 9.0625 -8.234375 11.46875 -9.34375 11.46875 -12.5625 C 11.46875 -16.265625 8.34375 -17.1875 4.6875 -17.1875 L 1.5 -17.1875 C 1.640625 -15.28125 1.640625 -14.484375 1.640625 -13.171875 L 1.640625 -4.046875 C 1.640625 -2.703125 1.640625 -1.90625 1.5 0 L 2.984375 0 C 2.875 -1.90625 2.859375 -2.703125 2.859375 -4.046875 L 2.859375 -7.953125 L 3.796875 -7.953125 C 6.125 -7.953125 7.734375 -7.28125 8.9375 -3.96875 C 9.96875 -1.140625 11.109375 0 14.3125 0 L 14.3125 -0.265625 C 12.25 -0.265625 11.28125 -1.09375 10.140625 -4.140625 Z M 2.859375 -8.234375 L 2.859375 -16.9375 L 4.6875 -16.9375 C 7.40625 -16.9375 10.15625 -16.078125 10.15625 -12.5625 C 10.15625 -9.09375 7.40625 -8.234375 4.6875 -8.234375 Z M 2.859375 -8.234375 "/></g></g></g><g fill="#fb9400" fill-opacity="1"><g transform="translate(246.767618, 308.034739)"><g/></g></g><g fill="#fb9400" fill-opacity="1"><g transform="translate(258.436929, 308.034739)"><g><path d="M 12.46875 -13.171875 C 12.46875 -14.484375 12.46875 -15.28125 12.59375 -17.1875 L 11.09375 -17.1875 C 11.21875 -15.28125 11.234375 -14.484375 11.234375 -13.171875 L 11.234375 -8.71875 L 2.859375 -8.71875 L 2.859375 -13.171875 C 2.859375 -14.484375 2.875 -15.28125 2.984375 -17.1875 L 1.5 -17.1875 C 1.640625 -15.28125 1.640625 -14.484375 1.640625 -13.171875 L 1.640625 -4.046875 C 1.640625 -2.703125 1.640625 -1.90625 1.5 0 L 2.984375 0 C 2.875 -1.90625 2.859375 -2.703125 2.859375 -4.046875 L 2.859375 -8.46875 L 11.234375 -8.46875 L 11.234375 -4.046875 C 11.234375 -2.703125 11.21875 -1.90625 11.09375 0 L 12.59375 0 C 12.46875 -1.90625 12.46875 -2.703125 12.46875 -4.046875 Z M 12.46875 -13.171875 "/></g></g></g><g fill="#fb9400" fill-opacity="1"><g transform="translate(278.120657, 308.034739)"><g><path d="M 1.296875 -17.1875 C 1.421875 -15.28125 1.421875 -14.484375 1.421875 -13.171875 L 1.421875 -7.3125 C 1.421875 -1.21875 3.625 0.4375 7.390625 0.4375 C 11.0625 0.4375 13 -1.671875 13 -7.3125 L 13 -13.171875 C 13 -14.484375 13 -15.28125 13.125 -17.1875 L 12.59375 -17.1875 C 12.71875 -15.28125 12.71875 -14.484375 12.71875 -13.171875 L 12.71875 -7.3125 C 12.71875 -1.90625 10.9375 0.015625 7.5625 0.015625 C 4.171875 0.015625 2.640625 -2.125 2.640625 -7.3125 L 2.640625 -13.171875 C 2.640625 -14.484375 2.671875 -15.28125 2.765625 -17.1875 Z M 1.296875 -17.1875 "/></g></g></g><g fill="#fb9400" fill-opacity="1"><g transform="translate(298.126669, 308.034739)"><g><path d="M 7.203125 -9.8125 C 9.84375 -10.1875 10.890625 -11.4375 10.890625 -13.40625 C 10.890625 -16.734375 7.75 -17.1875 5.15625 -17.1875 L 1.5 -17.1875 C 1.640625 -15.28125 1.640625 -14.484375 1.640625 -13.171875 L 1.640625 -4.046875 C 1.640625 -2.703125 1.640625 -1.90625 1.5 0 L 5.421875 0 C 8.828125 0 12.015625 -1.09375 12.015625 -4.796875 C 12.015625 -8.015625 9.578125 -9.390625 7.203125 -9.8125 Z M 2.859375 -16.9375 L 4.859375 -16.9375 C 6.6875 -16.9375 9.578125 -16.390625 9.578125 -13.40625 C 9.578125 -11.265625 8.40625 -9.96875 5.15625 -9.96875 L 2.859375 -9.96875 Z M 5.078125 -0.28125 L 2.859375 -0.28125 L 2.859375 -9.6875 L 5.375 -9.6875 C 7.15625 -9.6875 10.640625 -8.78125 10.640625 -4.828125 C 10.640625 -1.53125 7.96875 -0.28125 5.078125 -0.28125 Z M 5.078125 -0.28125 "/></g></g></g></svg>